<?xml version="1.0" encoding="utf-8"?>
<!-- Generator: Adobe Illustrator 21.1.0, SVG Export Plug-In . SVG Version: 6.00 Build 0)  -->
<svg version="1.1" id="Layer_1" xmlns="http://www.w3.org/2000/svg" xmlns:xlink="http://www.w3.org/1999/xlink" x="0px" y="0px"
	 viewBox="0 0 500 300" style="enable-background:new 0 0 500 300;" xml:space="preserve">
<style type="text/css">
	.st0{fill:#44566e;}
</style>
<g>
	<path class="st0" d="M186.3,101.5c0.5,0.5,1.2,0.8,1.9,0.8c0.7,0,1.4-0.3,1.9-0.8L201.6,90c0.5-0.5,0.8-1.2,0.8-1.9
		s-0.3-1.4-0.8-1.9l-11.5-11.5c-1.1-1.1-2.8-1.1-3.8,0l-11.5,11.5c-0.5,0.5-0.8,1.2-0.8,1.9s0.3,1.4,0.8,1.9L186.3,101.5z"/>
	<path class="st0" d="M225.3,140.4c0.5,0.5,1.2,0.8,2,0.8c0.7,0,1.4-0.3,1.9-0.8l11.4-11.5c1.1-1.1,1.1-2.8,0-3.8l-11.4-11.5
		c-1.1-1.1-2.8-1.1-3.8,0l-11.5,11.5c-0.5,0.5-0.8,1.2-0.8,1.9c0,0.7,0.3,1.4,0.8,1.9L225.3,140.4z"/>
	<path class="st0" d="M284.1,121.2c0.5,0.5,1.2,0.8,1.9,0.8c0.7,0,1.4-0.3,1.9-0.8l11.5-11.5c0.5-0.5,0.8-1.2,0.8-1.9
		c0-0.7-0.3-1.4-0.8-1.9l-11.5-11.5c-1.1-1.1-2.8-1.1-3.8,0l-11.5,11.5c-0.5,0.5-0.8,1.2-0.8,1.9c0,0.7,0.2,1.4,0.8,1.9L284.1,121.2
		z"/>
	<path class="st0" d="M166.9,160.2c0.5,0.5,1.2,0.8,1.9,0.8c0.7,0,1.4-0.2,1.9-0.8l11.5-11.5c0.5-0.5,0.8-1.2,0.8-1.9
		c0-0.7-0.3-1.4-0.8-2l-11.5-11.5c-1.1-1.1-2.8-1.1-3.8,0l-11.5,11.5c-0.5,0.5-0.8,1.2-0.8,2c0,0.7,0.3,1.4,0.8,1.9L166.9,160.2z"/>
	<path class="st0" d="M323,82.3c0.5,0.5,1.2,0.8,1.9,0.8c0.7,0,1.4-0.3,1.9-0.8l11.5-11.5c0.5-0.5,0.8-1.2,0.8-1.9
		c0-0.7-0.3-1.4-0.8-1.9l-11.5-11.5c-1.1-1.1-2.8-1.1-3.8,0L311.5,67c-0.5,0.5-0.8,1.2-0.8,1.9c0,0.7,0.3,1.4,0.8,1.9L323,82.3z"/>
	<path class="st0" d="M404.7,55.5c-1.1-1.1-2.8-1.1-3.8,0L389.3,67c-0.5,0.5-0.8,1.2-0.8,1.9c0,0.7,0.3,1.4,0.8,1.9l11.5,11.5
		c0.5,0.5,1.2,0.8,1.9,0.8c0.7,0,1.4-0.3,1.9-0.8l11.5-11.5c1.1-1.1,1.1-2.8,0-3.8L404.7,55.5z"/>
	<path class="st0" d="M443.8,94.4c-1.1-1.1-2.8-1.1-3.8,0l-11.5,11.5c-0.5,0.5-0.8,1.2-0.8,1.9c0,0.7,0.3,1.4,0.8,1.9l11.5,11.5
		c0.5,0.5,1.2,0.8,1.9,0.8c0.7,0,1.4-0.3,1.9-0.8l11.5-11.5c1.1-1.1,1.1-2.8,0-3.8L443.8,94.4z"/>
	<path class="st0" d="M494.2,67l-11.5-11.5c-1.1-1.1-2.8-1.1-3.8,0L467.4,67c-0.5,0.5-0.8,1.2-0.8,1.9c0,0.7,0.3,1.4,0.8,1.9
		l11.5,11.5c0.5,0.5,1.2,0.8,1.9,0.8c0.7,0,1.4-0.3,1.9-0.8l11.5-11.5c0.5-0.5,0.8-1.2,0.8-1.9C495,68.2,494.7,67.5,494.2,67"/>
	<path class="st0" d="M362,121.2c0.5,0.5,1.2,0.8,1.9,0.8c0.7,0,1.4-0.3,1.9-0.8l11.5-11.5c0.5-0.5,0.8-1.2,0.8-1.9
		c0-0.7-0.3-1.4-0.8-1.9l-11.5-11.5c-1.1-1.1-2.8-1.1-3.8,0l-11.5,11.5c-0.5,0.5-0.8,1.2-0.8,1.9c0,0.7,0.3,1.4,0.8,1.9L362,121.2z"
		/>
	<path class="st0" d="M76.9,146.9c0,0.7,0.3,1.4,0.8,1.9l11.5,11.5c0.5,0.5,1.2,0.8,1.9,0.8c0.7,0,1.4-0.3,1.9-0.8l11.5-11.5
		c0.5-0.5,0.8-1.2,0.8-1.9c0-0.7-0.3-1.4-0.8-1.9L93,133.5c-1.1-1.1-2.8-1.1-3.8,0L77.7,145C77.2,145.5,76.9,146.2,76.9,146.9"/>
	<path class="st0" d="M13.7,154.5l6.7-6.8c0.2-0.2,0.3-0.5,0.3-0.8s-0.1-0.6-0.3-0.8l-6.7-6.7c-0.4-0.4-1.2-0.4-1.6,0l-6.7,6.7
		c-0.2,0.2-0.3,0.5-0.3,0.8c0,0.3,0.1,0.6,0.3,0.8l6.7,6.8c0.2,0.2,0.5,0.3,0.8,0.3C13.2,154.8,13.5,154.7,13.7,154.5"/>
	<path class="st0" d="M363.1,37.6c0.2,0.2,0.5,0.3,0.8,0.3c0.3,0,0.6-0.1,0.8-0.3l6.8-6.8c0.2-0.2,0.3-0.5,0.3-0.8s-0.1-0.6-0.3-0.8
		l-6.8-6.7c-0.4-0.5-1.2-0.5-1.6,0l-6.7,6.7c-0.2,0.2-0.3,0.5-0.3,0.8s0.1,0.6,0.3,0.8L363.1,37.6z"/>
	<path class="st0" d="M70.8,134.2c0.2,0.2,0.5,0.3,0.8,0.3c0.3,0,0.6-0.1,0.8-0.3l6.7-6.7c0.2-0.2,0.4-0.5,0.4-0.8
		c0-0.3-0.1-0.6-0.4-0.8l-6.7-6.7c-0.4-0.4-1.2-0.4-1.6,0l-6.7,6.7c-0.2,0.2-0.3,0.5-0.3,0.8c0,0.3,0.1,0.6,0.3,0.8L70.8,134.2z"/>
	<path class="st0" d="M430.6,48.7c0-0.3-0.1-0.6-0.3-0.8l-6.8-6.7c-0.4-0.5-1.2-0.5-1.6,0l-6.7,6.7c-0.2,0.2-0.3,0.5-0.3,0.8
		s0.1,0.6,0.3,0.8l6.7,6.7c0.2,0.2,0.5,0.3,0.9,0.3c0.3,0,0.6-0.1,0.8-0.3l6.8-6.7C430.5,49.3,430.6,49,430.6,48.7"/>
	<path class="st0" d="M129.4,115.4c0.2,0.2,0.5,0.3,0.8,0.3c0.3,0,0.6-0.1,0.8-0.3l6.8-6.8c0.2-0.2,0.3-0.5,0.3-0.8
		c0-0.3-0.1-0.6-0.3-0.8l-6.8-6.8c-0.4-0.4-1.2-0.4-1.6,0l-6.7,6.8c-0.2,0.2-0.3,0.5-0.3,0.8c0,0.3,0.1,0.6,0.3,0.8L129.4,115.4z"/>
	<path class="st0" d="M365.5,277.1l11.7-11.7c1.1-1.1,1.1-2.8,0-3.8l-36.7-36.7l36.7-36.7c1.1-1.1,1.1-2.8,0-3.8l-11.7-11.8
		c-0.5-0.5-1.2-0.8-1.9-0.8s-1.4,0.3-1.9,0.8l-36.7,36.7l-36.7-36.7c-1.1-1.1-2.8-1.1-3.8,0l-11.8,11.8c-0.5,0.5-0.8,1.2-0.8,1.9
		c0,0.7,0.3,1.4,0.8,1.9l36.7,36.7l-36.7,36.7c-0.5,0.5-0.8,1.2-0.8,1.9c0,0.7,0.3,1.4,0.8,1.9l11.8,11.7c0.5,0.5,1.2,0.8,1.9,0.8
		s1.4-0.3,1.9-0.8l36.7-36.7l36.7,36.7c0.5,0.5,1.2,0.8,1.9,0.8C364.2,277.9,364.9,277.6,365.5,277.1"/>
</g>
</svg>
