<?xml version="1.0" encoding="utf-8"?>
<!-- Generator: Adobe Illustrator 16.0.0, SVG Export Plug-In . SVG Version: 6.00 Build 0)  -->
<!DOCTYPE svg PUBLIC "-//W3C//DTD SVG 1.1//EN" "http://www.w3.org/Graphics/SVG/1.1/DTD/svg11.dtd">
<svg version="1.1" id="Layer_1" xmlns="http://www.w3.org/2000/svg" xmlns:xlink="http://www.w3.org/1999/xlink" x="0px" y="0px"
	 width="500px" height="300px" viewBox="0 0 500 300" enable-background="new 0 0 500 300" xml:space="preserve">
<g>
	<path fill="#EDEDEB" d="M186.264,101.529c0.526,0.526,1.239,0.79,1.914,0.79c0.713,0,1.388-0.264,1.914-0.79l11.485-11.483
		c0.522-0.503,0.809-1.196,0.809-1.915s-0.286-1.41-0.808-1.915l-11.485-11.485c-1.054-1.054-2.774-1.054-3.83,0l-11.483,11.485
		c-0.486,0.504-0.773,1.196-0.773,1.915s0.287,1.412,0.774,1.915L186.264,101.529z"/>
	<path fill="#EDEDEB" d="M225.266,140.386c0.522,0.523,1.196,0.811,1.951,0.811c0.682-0.002,1.394-0.288,1.915-0.811l11.445-11.484
		c1.054-1.053,1.054-2.756,0-3.828l-11.445-11.464c-1.054-1.072-2.776-1.072-3.829-0.02l-11.484,11.483
		c-0.523,0.522-0.81,1.197-0.81,1.916c0,0.717,0.286,1.409,0.771,1.913L225.266,140.386z"/>
	<path fill="#EDEDEB" d="M284.072,121.218c0.526,0.527,1.238,0.791,1.915,0.791c0.711,0,1.387-0.264,1.914-0.791l11.484-11.485
		c0.523-0.523,0.809-1.197,0.809-1.914c0-0.719-0.285-1.411-0.81-1.915L287.9,94.422c-1.052-1.054-2.775-1.054-3.828,0
		l-11.484,11.483c-0.523,0.503-0.772,1.196-0.772,1.915c0,0.717,0.249,1.391,0.772,1.914L284.072,121.218z"/>
	<path fill="#EDEDEB" d="M166.933,160.238c0.527,0.526,1.24,0.772,1.915,0.772c0.712,0,1.388-0.246,1.915-0.772l11.485-11.484
		c0.521-0.521,0.808-1.197,0.808-1.915c0-0.717-0.287-1.429-0.81-1.951l-11.484-11.464c-1.053-1.052-2.775-1.052-3.828,0
		l-11.484,11.464c-0.487,0.522-0.773,1.234-0.773,1.951c0,0.718,0.286,1.394,0.772,1.915L166.933,160.238z"/>
	<path fill="#EDEDEB" d="M322.976,82.34c0.526,0.528,1.239,0.792,1.915,0.792c0.711,0,1.388-0.264,1.915-0.792l11.484-11.484
		c0.521-0.505,0.808-1.197,0.808-1.914c0-0.719-0.287-1.411-0.809-1.916l-11.485-11.482c-1.053-1.054-2.774-1.054-3.827,0
		l-11.485,11.482c-0.522,0.505-0.772,1.197-0.772,1.916c0,0.717,0.25,1.409,0.772,1.914L322.976,82.34z"/>
	<path fill="#EDEDEB" d="M404.656,55.518c-1.054-1.054-2.775-1.054-3.827-0.001l-11.485,11.465
		c-0.523,0.523-0.809,1.197-0.809,1.934c0,0.718,0.285,1.392,0.808,1.895l11.484,11.485c0.522,0.523,1.197,0.811,1.915,0.811
		c0.719-0.003,1.43-0.288,1.914-0.811L416.14,70.81c1.054-1.053,1.054-2.755,0-3.828L404.656,55.518z"/>
	<path fill="#EDEDEB" d="M443.752,94.448c-1.056-1.054-2.776-1.054-3.829-0.001l-11.485,11.482
		c-0.522,0.505-0.809,1.198-0.809,1.916c0,0.719,0.286,1.412,0.808,1.914l11.485,11.485c0.522,0.505,1.196,0.792,1.915,0.792
		c0.718-0.002,1.394-0.287,1.915-0.792l11.481-11.485c1.054-1.053,1.054-2.774,0-3.828L443.752,94.448z"/>
	<path fill="#EDEDEB" d="M494.19,67.027l-11.485-11.483c-1.053-1.054-2.775-1.054-3.828,0l-11.484,11.483
		c-0.486,0.504-0.772,1.196-0.772,1.915c0,0.717,0.286,1.409,0.771,1.914l11.485,11.485c0.527,0.527,1.239,0.79,1.915,0.79
		c0.71,0,1.387-0.263,1.914-0.79l11.485-11.485c0.521-0.505,0.809-1.197,0.809-1.914C495,68.223,494.713,67.531,494.19,67.027"/>
	<path fill="#EDEDEB" d="M361.969,121.244c0.526,0.528,1.203,0.792,1.915,0.792c0.676,0,1.388-0.264,1.914-0.792l11.485-11.484
		c0.485-0.504,0.771-1.197,0.771-1.914c0-0.719-0.286-1.412-0.772-1.916l-11.485-11.482c-1.052-1.054-2.774-1.054-3.827,0
		l-11.484,11.482c-0.523,0.504-0.809,1.197-0.809,1.916c0,0.716,0.285,1.409,0.808,1.914L361.969,121.244z"/>
	<path fill="#EDEDEB" d="M76.922,146.892c0,0.72,0.287,1.394,0.811,1.915l11.483,11.485c0.526,0.528,1.202,0.809,1.915,0.809
		c0.676,0,1.387-0.28,1.914-0.809l11.484-11.485c0.523-0.521,0.772-1.195,0.772-1.915c0-0.716-0.286-1.392-0.772-1.914
		l-11.484-11.483c-1.054-1.052-2.773-1.052-3.829,0l-11.483,11.483C77.209,145.5,76.922,146.176,76.922,146.892"/>
	<path fill="#EDEDEB" d="M13.71,154.456l6.748-6.75c0.233-0.197,0.337-0.521,0.337-0.813c0-0.292-0.104-0.58-0.337-0.813
		l-6.748-6.748c-0.435-0.435-1.155-0.435-1.626,0l-6.748,6.748C5.139,146.313,5,146.602,5,146.894c0,0.291,0.139,0.615,0.336,0.813
		l6.748,6.75c0.233,0.233,0.521,0.335,0.813,0.335C13.226,154.791,13.513,154.689,13.71,154.456"/>
	<path fill="#EDEDEB" d="M363.072,37.62c0.197,0.215,0.521,0.335,0.814,0.335c0.29,0,0.579-0.12,0.812-0.335l6.75-6.768
		c0.196-0.215,0.335-0.503,0.335-0.813s-0.139-0.598-0.335-0.813l-6.75-6.748c-0.435-0.453-1.19-0.453-1.626,0l-6.749,6.748
		c-0.233,0.215-0.335,0.504-0.335,0.813s0.102,0.598,0.335,0.813L363.072,37.62z"/>
	<path fill="#EDEDEB" d="M70.753,134.233c0.233,0.216,0.521,0.338,0.813,0.338c0.328,0,0.616-0.122,0.813-0.338l6.747-6.747
		c0.234-0.215,0.373-0.523,0.373-0.833c0-0.292-0.139-0.598-0.373-0.813l-6.747-6.748c-0.436-0.435-1.156-0.435-1.627,0
		l-6.748,6.748c-0.197,0.215-0.337,0.522-0.337,0.813c0,0.31,0.14,0.617,0.337,0.833L70.753,134.233z"/>
	<path fill="#EDEDEB" d="M430.635,48.677c0-0.31-0.139-0.599-0.335-0.814l-6.786-6.748c-0.435-0.453-1.154-0.453-1.626,0
		l-6.749,6.748c-0.197,0.215-0.335,0.505-0.335,0.814c0,0.309,0.138,0.597,0.335,0.813l6.749,6.749
		c0.233,0.215,0.521,0.335,0.851,0.335c0.29,0,0.578-0.12,0.775-0.335l6.786-6.749C430.496,49.273,430.635,48.985,430.635,48.677"/>
	<path fill="#EDEDEB" d="M129.368,115.381c0.234,0.215,0.521,0.335,0.814,0.335c0.327,0,0.615-0.12,0.812-0.335l6.75-6.75
		c0.232-0.214,0.335-0.522,0.335-0.813c0-0.311-0.103-0.599-0.335-0.814l-6.75-6.766c-0.435-0.435-1.154-0.435-1.626,0l-6.748,6.766
		c-0.197,0.215-0.336,0.503-0.336,0.814c0,0.291,0.139,0.598,0.336,0.813L129.368,115.381z"/>
	<path fill="#EDEDEB" d="M365.462,277.052l11.731-11.73c1.054-1.092,1.054-2.775,0-3.83l-36.705-36.741l36.705-36.705
		c1.054-1.054,1.054-2.774,0-3.828l-11.731-11.77c-0.521-0.486-1.196-0.811-1.915-0.811s-1.428,0.324-1.914,0.811l-36.742,36.705
		l-36.704-36.703c-1.054-1.055-2.777-1.054-3.828-0.001l-11.771,11.769c-0.486,0.521-0.772,1.195-0.772,1.914
		c0,0.717,0.286,1.393,0.771,1.914l36.744,36.705l-36.744,36.741c-0.484,0.486-0.771,1.197-0.771,1.914
		c0,0.719,0.286,1.393,0.772,1.916l11.771,11.73c0.526,0.527,1.237,0.81,1.913,0.81s1.388-0.282,1.915-0.81l36.705-36.704
		l36.741,36.704c0.526,0.527,1.202,0.81,1.914,0.81C364.223,277.861,364.936,277.579,365.462,277.052"/>
</g>
</svg>
